@startuml

skinparam classAttributeFontName Monospaced
skinparam classBackgroundColor #EFF2FB
skinparam classBorderColor #D8D8D8
skinparam packageBorderColor #BDBDBD
skinparam classArrowColor #0B615E
skinparam shadowing false

'skinparam monochrome true
'skinparam nodesep 100
'skinparam ranksep 100
'note "All <color:black><b> (M)odels</b></color> extends <b>pyoko.Model</b> class" as N #orchid
title
<size:24>Entity Based Model Diagram</size>
( All Models extends <b>pyoko.Model</b> class )
endtitle
'legend left
'n..*     n or more instances
'n..m    Min n, Max m instances
'endlegend






package auth{

class User <<(M,orchid)>>{
|_ id                  Int
|_ **IdentityInfo(Model)**
   |_  tckno           string
   |_  name            string
   |_  surname         string
   |_  birth_date      Date
   |_  birth_place     Date
   |_  neighborhood    string
   |_  father_name     String
   |_  mother_name     String
   |_  gender          String
   |_  marital_status  String
   |_  town_code       Int
   |_  city            Int
   |_  blood_type      String
   |_  former_surname  String
|_ **ContactInfo(Model)**
   |_  home_phone      String
   |_  work_phone      String
   |_  mobile_phone    String
   |_  address_pri     String
   |_  address_sec     String
   |_  postal_code     Int
   |_  primary_email   String
   |_  secondary_email String
   |_  website         String
--
authenticate()
get_permissions()
}

class LimitedPermissions <<(M,orchid)>> {
restrictive     Boolean(False)
time_start      String
time_end        String
--
**IPList(ListNode)**
|_ ip           String
**Permissions(ListNode)**
|_ permission       **Permission()**
**AbstractRoles(ListNode)**
|_ abstract_role    **AbstractRole()**
**Roles(ListNode)**
|_ role             **Role()**
}
LimitedPermissions "0..*" -- "0..*" Permission
LimitedPermissions "0..*" -- "0..*" Role
LimitedPermissions "0..*" -- "0..*" AbstractRole

class AbstractRole<<(M,orchid)>>{
Permissions(ListNode)
|_permission    **Permissions()**
id              Int
name            String
--
}
class Role<<(M,orchid)>>{
abstract_role   **AbstractRole()**
user            **User()**
unit            **Unit()**
Permissions(ListNode)
|_permission    **Permissions()**
active          Boolean
start_date      Date
end_date        Date
--
}
class Permission<<(M,orchid)>>{
name            String
code            String
}
}
class Employee <<(M,orchid)>>{
user                 **User()**
registry_code        String
status_code          Int
labour_class_code    String
health_status        String
degree_of_disabled   String
tax_no               String
retirement_no        String
retirement_date      Date
address_city_code    String
address_town_code    String
country_code         String
min_degree           Int
min_grade            Int
nomination           String
**ServiceRecords(ListNode)**
|_ start_date                   Date
|_ end_date                     Date
|_ task                         String
|_ code                         String
|_ wages                        Float
|_ salary                       Float
|_ class                        String
|_ staff                        String
|_ payment_degree               Int
|_ payment_grade                Int
|_ payment_indicator            Int
|_ earned_salary_grade          Int
|_ retirement_degree            Int
|_ retirement_grade             Int
|_ retirement_indicator         Int
|_ reason_code                  String
|_ organization_approval_date   Date
--
}
class Unit<<(M,orchid)>>{
type        String
name        String
parent      **Unit()**
--
people      **Role()**
}

class Lecturer<<(M,orchid)>>{
employe         **Employee()**
name            String
type            [String]
--
note: non-employee (guest) lecturers data
will be stored here
--
}

class Curriculum<<(M,orchid)>>{
unit        **Unit()**
period      Int
--
lectures    **BaseLecture()**

}


'class StudentTimeTable<<(M,orchid)>>{
'student         **Student()**
'timetable       **TimeTable()**
'week_day        Int
'hours           [Int]
'}

class Location<<(M,orchid)>>{
code            String
building        String
--
lectures        **Lecture()**
}

class Lecture<<(M,orchid)>>{
lecturer    **Lecturer()**
base        **BaseLecture()**
--
}
class BaseLecture<<(M,orchid)>>{
name     String
code     String
credit   String
--
}
class TimeTable<<(M,orchid)>>{
lecture         **Lecture()**
location        **Location()**
week_day        Int
day_hour        Int
hours           [Int]
--
}



class Student <<(M,orchid)>> {
timetable           **TimeTable()**
role                **Role()**
timetable           **TimeTable()**
--
**Lectures(ListNode)**
|_ lecture         **Lecture()**
**Exams(ListModel)**
|_ exam             **Exam()**
**Attendances(ListModel)**
|_ attendance        **Attendance()**
}
class Exam <<(M,orchid)>> {
lecture           **Lecture()**
type              String
date              Date
point             Int
--
}

class Attendance <<(M,orchid)>> {
lecture           **Lecture()**
attended          Boolean
date              Date
hour              Int
--
}

Lecture -- Lecturer
Lecture -- Student
Unit "0..*" o-- "1" Curriculum
BaseLecture -- Curriculum
BaseLecture -- Lecture

Unit "0..*" -- "1" Role
Unit "0..1" --o "0..*" Unit
User "0..*" o-- "1" Role
Lecturer --o Employee
Lecture --o TimeTable
Role "1" --o "0..*" AbstractRole
AbstractRole "0..*" o-- "0..*" Permission
Role "0..*" o-- "0..*" Permission

Lecture "0..*" -- "1" Exam
Lecture "0..*" -- "1" Attendance
Student "0..*" -- "1" Exam
Student "0..*" -- "1" Attendance

User "1" -- "1" Student
User "1" -- "1" Employee
TimeTable "1" o-- "0..*" Location
Unit "0..*" o-- "1..*" Location
TimeTable "0..*" --o "0..*" Student

' XXXXXXXXXXXX
' Unit "0..*" -- "0..*" Employee
' Student "1..*" --o "0..*" Curriculum
' XXXXXXXXXXXX
@enduml
